<svg xmlns="http://www.w3.org/2000/svg" viewBox="0 0 512 512">
<g fill="currentColor">
	<path d="M212.1,171.7l-14.9-8.6c1.5-8.1,1.5-16.4,0-24.6l14.9-8.6c1.7-1,2.5-3,1.9-4.9c-3.9-12.5-10.5-23.8-19.2-33.1
		c-1.3-1.4-3.5-1.8-5.2-0.8l-14.9,8.6c-6.3-5.4-13.5-9.5-21.3-12.3V70.2c0-2-1.4-3.7-3.3-4.1c-12.9-2.9-26-2.8-38.2,0
		c-1.9,0.4-3.3,2.1-3.3,4.1v17.2c-7.8,2.8-15,6.9-21.3,12.3l-14.9-8.6c-1.7-1-3.9-0.6-5.2,0.8c-8.7,9.3-15.3,20.7-19.2,33.1
		c-0.6,1.9,0.2,3.9,1.9,4.9l14.9,8.6c-1.5,8.1-1.5,16.4,0,24.6l-14.9,8.6c-1.7,1-2.5,3-1.9,4.9c3.9,12.5,10.5,23.7,19.2,33.1
		c1.3,1.4,3.5,1.8,5.2,0.8l14.9-8.6c6.3,5.4,13.5,9.5,21.3,12.3v17.2c0,2,1.4,3.7,3.3,4.1c12.9,2.9,26,2.8,38.2,0
		c1.9-0.4,3.3-2.1,3.3-4.1v-17.2c7.8-2.8,15-6.9,21.3-12.3l14.9,8.6c1.7,1,3.9,0.6,5.2-0.8c8.7-9.3,15.3-20.7,19.2-33.1
		C214.6,174.7,213.8,172.7,212.1,171.7z M131.2,178.8c-15.5,0-28-12.6-28-28s12.6-28,28-28s28,12.6,28,28S146.6,178.8,131.2,178.8z"
		/>
	<path d="M285.4,186.6h161v-17.4c0-19.2-15.4-34.9-34.6-34.9H221.4c2,11,2,22.3,0,33.3l20.3,11.7c2.3,1.3,3.4,4.1,2.6,6.7
		c-5.3,17-14.3,32.5-26.2,45.2c-1.8,2-4.8,2.4-7.1,1.1l-20.3-11.7c-8.6,7.3-18.4,13-29.1,16.8v23.5c0,2.7-1.9,5-4.5,5.6
		c-10.7,2.4-21.8,3.3-33.1,2.7v144.5c0,19.2,16.6,34.3,35.9,34.3h251.6c19.2,0,34.6-15.7,34.6-34.9v-17.4h-161
		c-19.3,0-34.8-15.7-34.8-34.9V221.4C250.5,202.2,266,186.6,285.4,186.6z"/>
	<path d="M285.1,233.9v114.4c0,7.2,5.9,13.1,13.1,13.1h152.8c7.2,0,13.1-5.9,13.1-13.1V233.9c0-7.2-5.9-13.1-13.1-13.1H298.1
		C291,220.9,285.1,226.8,285.1,233.9z M348.1,317.2c-15.8,1-28.8-12-27.8-27.8c0.8-13,11.4-23.5,24.4-24.4c15.8-1,28.8,12,27.8,27.8
		C371.6,305.8,361.1,316.4,348.1,317.2z"/>
</g>
</svg>
