<svg
  xmlns="http://www.w3.org/2000/svg"
  width="64" height="64" viewBox="0 0 128 128">
  <g>
    <path d="M61.5.05v18.52a45.2 45.2 0 0 0-15.52 3.62l-9.3-16.1A63.67 63.67 0 0 1 61.5.05z" fill="currentColor" opacity="0.03" />
    <path d="M61.5.05v18.52a45.2 45.2 0 0 0-15.52 3.62l-9.3-16.1A63.67 63.67 0 0 1 61.5.05z" fill="currentColor" opacity="0.05" transform="rotate(30 64 64)"/>
    <path d="M61.5.05v18.52a45.2 45.2 0 0 0-15.52 3.62l-9.3-16.1A63.67 63.67 0 0 1 61.5.05z" fill="currentColor" opacity="0.10" transform="rotate(60 64 64)"/>
    <path d="M61.5.05v18.52a45.2 45.2 0 0 0-15.52 3.62l-9.3-16.1A63.67 63.67 0 0 1 61.5.05z" fill="currentColor" opacity="0.20" transform="rotate(90 64 64)"/>
    <path d="M61.5.05v18.52a45.2 45.2 0 0 0-15.52 3.62l-9.3-16.1A63.67 63.67 0 0 1 61.5.05z" fill="currentColor" opacity="0.30" transform="rotate(120 64 64)"/>
    <path d="M61.5.05v18.52a45.2 45.2 0 0 0-15.52 3.62l-9.3-16.1A63.67 63.67 0 0 1 61.5.05z" fill="currentColor" opacity="0.40" transform="rotate(150 64 64)"/>
    <path d="M61.5.05v18.52a45.2 45.2 0 0 0-15.52 3.62l-9.3-16.1A63.67 63.67 0 0 1 61.5.05z" fill="currentColor" opacity="0.50" transform="rotate(180 64 64)"/>
    <path d="M61.5.05v18.52a45.2 45.2 0 0 0-15.52 3.62l-9.3-16.1A63.67 63.67 0 0 1 61.5.05z" fill="currentColor" opacity="0.60" transform="rotate(210 64 64)"/>
    <path d="M61.5.05v18.52a45.2 45.2 0 0 0-15.52 3.62l-9.3-16.1A63.67 63.67 0 0 1 61.5.05z" fill="currentColor" opacity="0.70" transform="rotate(240 64 64)"/>
    <path d="M61.5.05v18.52a45.2 45.2 0 0 0-15.52 3.62l-9.3-16.1A63.67 63.67 0 0 1 61.5.05z" fill="currentColor" opacity="0.80" transform="rotate(270 64 64)"/>
    <path d="M61.5.05v18.52a45.2 45.2 0 0 0-15.52 3.62l-9.3-16.1A63.67 63.67 0 0 1 61.5.05z" fill="currentColor" opacity="0.90" transform="rotate(300 64 64)"/>
    <path d="M61.5.05v18.52a45.2 45.2 0 0 0-15.52 3.62l-9.3-16.1A63.67 63.67 0 0 1 61.5.05z" fill="currentColor" opacity="1.00" transform="rotate(330 64 64)"/>
    <animateTransform 
    attributeName="transform" type="rotate" 
    values="0 64 64;30 64 64;60 64 64;90 64 64;120 64 64;150 64 64;180 64 64;210 64 64;240 64 64;270 64 64;300 64 64;330 64 64" 
    calcMode="discrete" dur="800ms" repeatCount="indefinite">
    </animateTransform>
  </g>
</svg>